ply
format ascii 1.0
element vertex 30
property float x
property float y
property float z
end_header
-0.235892 0.261400 1.555289
0.348861 0.504618 1.610028
0.210736 0.577494 1.553350
0.455287 0.640743 1.690800
0.204904 0.631311 1.544888
-1.106089 -0.090061 1.482767
0.304974 0.717439 1.619785
0.377490 0.730582 1.684319
0.379752 0.438256 1.627531
-0.194441 0.377289 1.456985
-1.231283 -0.087683 1.250683
0.478966 0.644906 1.688947
0.854466 1.107566 2.127756
-1.208782 0.097665 1.210847
0.187048 0.316438 1.554782
0.312149 0.435255 1.590147
0.291977 0.643551 1.573345
-1.217966 -0.008365 1.269751
-0.019888 0.695074 1.362540
0.530262 1.014905 1.989357
-0.188964 0.393886 1.457259
0.401073 0.343182 1.652691
-0.238721 0.256629 1.554653
-0.176457 0.478792 1.407286
0.252940 0.616710 1.535511
0.928317 1.116158 2.186340
-1.045158 -0.216990 1.553537
-1.190838 0.164820 1.233909
0.172564 0.582522 1.554523
0.519755 1.049014 1.988655
